<svg version="1.1" id="Layer_1" xmlns="http://www.w3.org/2000/svg" x="0" y="0" width="229.17" height="26.25" viewBox="0 0 229.17 26.25" xml:space="preserve"><style>.st0{fill-rule:evenodd;clip-rule:evenodd;fill:#fff}</style><g id="Group_57" transform="translate(-60.031 -173.783)"><path id="Path_540" class="st0" d="M108.21 196.29c-.75.35-1.55.6-2.37.75-.95.19-1.92.28-2.89.28-2.61.13-5.15-.85-6.99-2.69a10.338 10.338 0 01-2.5-7.27c.04-3.27.93-5.79 2.66-7.55a9.477 9.477 0 017.01-2.67c.95 0 1.89.1 2.81.29.74.16 1.47.4 2.15.74l.81-2.61c-.67-.33-1.38-.57-2.11-.72-1.24-.27-2.5-.4-3.77-.39-6.78-.36-12.58 4.84-12.94 11.63-.02.46-.02.92 0 1.38-.06 2.4.5 4.77 1.61 6.89.99 1.81 2.5 3.28 4.32 4.24 1.94.99 4.09 1.48 6.27 1.45 1.33.01 2.67-.12 3.98-.37.89-.15 1.75-.43 2.57-.81l-.62-2.57z"/><path id="Path_541" class="st0" d="M149.73 198.99v-14.58h4.09v-2.34h-4.09v-.91c-.06-1.18.17-2.36.66-3.43.51-.96 1.54-1.54 2.63-1.46.39 0 .77.03 1.15.11.28.06.55.15.81.27l.42-2.37c-.36-.15-.73-.26-1.11-.34-.5-.1-1-.15-1.51-.15-.74 0-1.47.12-2.17.37-.73.26-1.4.66-1.96 1.2-.71.72-1.22 1.6-1.5 2.57-.32 1.08-.47 2.21-.45 3.34v.8h-2.34v2.35h2.34V199l3.03-.01z"/><path id="Path_542" class="st0" d="M158.99 198.99v-14.58h4.09v-2.34h-4.09v-.91c-.06-1.18.17-2.36.66-3.43.51-.96 1.54-1.54 2.63-1.46.39 0 .77.03 1.15.11.28.06.55.15.81.27l.42-2.37c-.36-.15-.73-.26-1.11-.34-.5-.1-1-.15-1.51-.15-.74 0-1.47.12-2.17.37-.73.26-1.4.66-1.96 1.2-.71.72-1.22 1.6-1.5 2.57-.32 1.08-.47 2.21-.45 3.34v.8h-2.34v2.35h2.34V199l3.03-.01z"/><path id="Path_543" class="st0" d="M178.99 191.09c.04-.2.06-.41.08-.61.02-.23.03-.51.03-.82 0-1.17-.19-2.33-.58-3.44-.4-1.22-1.14-2.3-2.13-3.13a6.665 6.665 0 00-4.28-1.37 7.6 7.6 0 00-4.25 1.22 7.784 7.784 0 00-2.72 3.24c-.65 1.45-.98 3.03-.96 4.62-.1 2.27.69 4.5 2.2 6.2a8.154 8.154 0 006.11 2.37c1.15.01 2.31-.11 3.43-.36.77-.16 1.51-.41 2.23-.72l-.56-2.2c-.62.28-1.27.48-1.93.62-.91.18-1.83.26-2.75.25a5.402 5.402 0 01-5.81-4.97c-.02-.3-.02-.6.01-.91l11.88.01zm-11.85-2.2c.09-.77.3-1.53.63-2.24.34-.75.86-1.41 1.52-1.92.74-.55 1.65-.83 2.57-.81.96-.04 1.9.27 2.65.86.61.52 1.05 1.2 1.29 1.96.23.69.34 1.42.32 2.14l-8.98.01z"/><path id="Path_544" class="st0" d="M196.5 191.09c.04-.2.06-.41.08-.61.02-.23.03-.51.03-.82 0-1.17-.19-2.33-.58-3.44-.4-1.22-1.14-2.3-2.13-3.13a6.665 6.665 0 00-4.28-1.37 7.6 7.6 0 00-4.25 1.22 7.784 7.784 0 00-2.72 3.24c-.65 1.45-.98 3.03-.96 4.62-.1 2.27.69 4.5 2.2 6.2a8.154 8.154 0 006.11 2.37c1.15.01 2.31-.11 3.43-.36.77-.16 1.51-.41 2.23-.72l-.56-2.2c-.62.28-1.27.48-1.93.62-.91.18-1.83.26-2.75.25-2.98.23-5.58-2-5.81-4.97-.02-.3-.02-.6.01-.9h11.88zm-11.85-2.2c.09-.78.3-1.53.63-2.24.34-.75.86-1.41 1.52-1.92.74-.55 1.65-.83 2.57-.81.96-.04 1.9.27 2.65.86.61.52 1.06 1.2 1.29 1.96.23.69.33 1.42.32 2.14l-8.98.01z"/><path id="Path_545" class="st0" d="M200.49 175.43v23.56h3.07v-11.04h11.4V199h3.07v-23.56h-3.07v9.86h-11.4v-9.86h-3.07z"/><path id="Path_546" class="st0" d="M230.37 181.72c-1.48-.02-2.94.35-4.24 1.07a7.744 7.744 0 00-3 3.06 9.958 9.958 0 00-1.14 4.82c-.08 2.35.76 4.63 2.35 6.36a7.887 7.887 0 005.76 2.35c1.38 0 2.75-.32 3.99-.94 1.31-.66 2.4-1.68 3.15-2.93a9.717 9.717 0 001.28-5.11c.08-2.3-.73-4.54-2.25-6.26a7.856 7.856 0 00-5.9-2.42zm-.07 2.3c1.07-.02 2.11.35 2.93 1.04.75.67 1.31 1.52 1.63 2.48.34.95.51 1.95.51 2.95.05 1.69-.47 3.35-1.47 4.72a4.557 4.557 0 01-6.38.97c-.37-.27-.7-.6-.97-.97a7.562 7.562 0 01-1.42-4.64c-.01-1.06.18-2.11.54-3.11a5.7 5.7 0 011.69-2.44c.83-.67 1.87-1.02 2.94-1z"/><path id="Path_547" class="st0" d="M256.55 182.07h-3.07v10.35c0 .29-.02.57-.07.85-.04.25-.11.49-.21.72-.31.76-.81 1.43-1.46 1.94-.74.58-1.65.9-2.59.89-1.18.08-2.3-.5-2.92-1.5-.64-1.2-.93-2.56-.85-3.91v-9.33h-3.07v9.89c-.06 1.57.26 3.12.92 4.54.48.97 1.26 1.76 2.22 2.25.84.41 1.76.62 2.69.61a6.45 6.45 0 003.64-1.06 6.19 6.19 0 001.96-2.08h.07l.17 2.76h2.72c-.1-1.32-.14-2.87-.14-4.65l-.01-12.27z"/><path id="Path_548" class="st0" d="M260.5 198.18c.67.38 1.38.67 2.13.85.86.22 1.74.33 2.63.33 1.66.08 3.3-.42 4.63-1.42 1.09-.91 1.7-2.26 1.66-3.68.04-1.13-.37-2.24-1.13-3.07a8.28 8.28 0 00-3.31-2c-.87-.29-1.68-.72-2.42-1.25-.5-.4-.79-1.01-.77-1.65-.01-.62.25-1.21.72-1.63.59-.48 1.33-.72 2.08-.68.71 0 1.41.12 2.07.35.49.17.95.39 1.39.66l.73-2.24c-.54-.34-1.14-.59-1.76-.75-.77-.2-1.57-.3-2.36-.3a6.29 6.29 0 00-4.27 1.46c-1 .89-1.58 2.16-1.57 3.5 0 1.02.39 2 1.1 2.74.96.94 2.12 1.65 3.41 2.05.88.27 1.69.71 2.4 1.3.49.46.75 1.11.72 1.77.02.69-.27 1.35-.8 1.8-.71.52-1.58.78-2.46.72-.77-.01-1.54-.14-2.27-.38-.63-.2-1.24-.47-1.82-.8l-.73 2.32z"/><path id="Path_549" class="st0" d="M289.09 191.09c.04-.2.06-.41.08-.61.02-.23.03-.51.03-.82 0-1.17-.19-2.33-.58-3.44a6.967 6.967 0 00-2.13-3.13 6.665 6.665 0 00-4.28-1.37 7.6 7.6 0 00-4.25 1.22 7.784 7.784 0 00-2.72 3.24c-.65 1.45-.98 3.03-.96 4.62-.1 2.27.69 4.5 2.2 6.2a8.154 8.154 0 006.11 2.37c1.15.01 2.31-.11 3.43-.36.77-.16 1.51-.41 2.23-.72l-.56-2.2c-.62.28-1.27.48-1.93.62-.91.18-1.83.26-2.75.25-2.98.23-5.58-2-5.81-4.97-.02-.3-.02-.6.01-.9h11.88zm-11.85-2.2c.09-.78.3-1.53.63-2.24.34-.75.86-1.41 1.52-1.92.74-.55 1.65-.83 2.57-.81.96-.04 1.9.27 2.65.86.61.52 1.05 1.2 1.29 1.96.23.69.34 1.42.32 2.14l-8.98.01z"/><path id="Path_550" class="st0" d="M62.09 190.33h-2.06l.62-.67h1.57l.51-2.55 1.86-.45-.59 3h3.39l-.74.79c-.68-.08-1.37-.12-2.06-.13h-.73l-1.22 6.16c-.1.44-.16.89-.19 1.34 0 .47.21.71.63.71 1.02-.18 1.95-.69 2.66-1.44l-.16.83a4.94 4.94 0 01-3.36 1.73c-1.02 0-1.53-.56-1.53-1.69.02-.54.08-1.07.2-1.6l1.2-6.03z"/><path id="Path_551" class="st0" d="M67.95 199.54l.67-2.77 1.23-6.22c.3-1.89 1.15-3.66 2.44-5.07a5.888 5.888 0 014.37-1.81 6.3 6.3 0 011.62.19l-1.23 1.29c-.56-.28-1.17-.44-1.8-.48-.85-.05-1.66.34-2.15 1.04a11.54 11.54 0 00-1.3 3.96l-.97 4.89h.14c.63-1.37 1.49-2.62 2.54-3.71a3.99 3.99 0 012.64-1.4c.99 0 1.49.55 1.49 1.64-.01.44-.06.87-.15 1.3l-.87 4.39c-.1.44-.17.9-.21 1.35 0 .38.18.57.53.57.6 0 1.5-.66 2.69-1.98l-.16.84c-1.32 1.41-2.5 2.12-3.54 2.12-.87 0-1.3-.45-1.3-1.36.03-.51.1-1.03.21-1.53l.88-4.41c.06-.28.09-.57.1-.86 0-.49-.18-.73-.54-.73-1.14 0-2.73 1.82-4.77 5.45l-.65 3.21-1.91.09z"/><path id="Path_552" class="st0" d="M88.33 196.97l-.13.69a9.11 9.11 0 01-4.88 2c-.79.03-1.55-.3-2.07-.9a3.37 3.37 0 01-.8-2.32c.03-1.78.73-3.48 1.95-4.78.98-1.33 2.5-2.14 4.15-2.23.49-.02.97.18 1.3.54.34.39.52.89.49 1.4a3.602 3.602 0 01-1.76 2.97 7.099 7.099 0 01-4.21 1.24l-.01.4c0 1.75.64 2.63 1.93 2.63 1.47-.13 2.88-.71 4.04-1.64zm-5.96-1.92c1.13-.03 2.22-.4 3.15-1.04a2.72 2.72 0 001.13-2.27c0-.92-.33-1.38-1-1.38-.89.11-1.67.64-2.09 1.43-.67.96-1.08 2.09-1.19 3.26z"/><path id="Path_553" class="st0" d="M127.72 195.93c-.68 2.48-5.04 3.65-9.74 2.37s-7.99-4.15-7.31-6.63 5.94-3.29 10.63-2 7.1 3.78 6.42 6.26z"/><path id="Path_554" class="st0" d="M142.56 191.74c-.69 2.81-4.87 4.21-9.35 3.12s-7.55-4.26-6.86-7.07 4.87-4.21 9.35-3.12 7.55 4.26 6.86 7.07z"/><path id="Path_555" class="st0" d="M135.47 183.14c1 3.09-1.69 6.73-6 8.11s-8.61.01-9.61-3.09 1.69-6.73 6-8.12c4.32-1.37 8.62.01 9.61 3.1z"/></g></svg>